<svg width="136" height="24" viewBox="0 0 136 24" fill="none" xmlns="http://www.w3.org/2000/svg">
<path d="M110.226 13.2075V8.85466V8.70836L110.333 8.61983C110.743 8.27888 111.138 8.02313 111.516 7.85136C111.907 7.67413 112.283 7.58567 112.641 7.58567C112.968 7.58567 113.27 7.67567 113.55 7.85553C113.819 8.02981 114.064 8.28704 114.279 8.62664C114.491 8.96325 114.649 9.38426 114.753 9.88975C114.854 10.3802 114.904 10.951 114.904 11.6025C114.904 12.3053 114.845 12.9228 114.729 13.4559C114.61 14.0037 114.429 14.4601 114.185 14.8236C113.94 15.193 113.662 15.4713 113.35 15.659C113.032 15.8487 112.683 15.9442 112.302 15.9442C112.093 15.9442 111.894 15.9183 111.702 15.8663C111.511 15.8146 111.331 15.737 111.165 15.6339L111.165 15.6341C110.995 15.5302 110.848 15.4076 110.726 15.2698C110.599 15.1276 110.5 14.9679 110.428 14.7936L110.427 14.7909C110.358 14.6199 110.306 14.3974 110.273 14.1249C110.241 13.8644 110.226 13.5585 110.226 13.2075ZM109.763 6.17074V4.98211H108.909C108.596 5.12695 108.285 5.2562 107.976 5.37043C107.656 5.4884 107.332 5.59201 107.005 5.67906H107.005C106.677 5.76666 106.323 5.8461 105.941 5.91702C105.621 5.97689 105.281 6.03234 104.919 6.08314V8.11889H106.506H106.77V8.41261V20.378C106.77 20.6302 106.76 20.8426 106.742 21.0147C106.72 21.2087 106.685 21.3599 106.634 21.4694H106.634C106.586 21.5748 106.528 21.6642 106.461 21.736C106.387 21.8157 106.303 21.8744 106.209 21.9138V21.9144C106.124 21.9497 105.982 21.9739 105.782 21.9877C105.597 22 105.361 22.0066 105.076 22.0066H104.919V24H112.127V22.0066H111.804C111.543 22.0066 111.327 21.9996 111.157 21.9847C110.972 21.9681 110.832 21.9389 110.741 21.8966V21.8971C110.648 21.854 110.567 21.7968 110.497 21.7251C110.428 21.6548 110.371 21.5696 110.326 21.4702L110.325 21.4694C110.287 21.3824 110.26 21.2393 110.245 21.0393C110.232 20.8703 110.226 20.6489 110.226 20.378V17.693V17.1499L110.632 17.4493C110.87 17.6231 111.099 17.7723 111.322 17.894C111.539 18.0138 111.746 18.1061 111.941 18.1683H111.942C112.135 18.2316 112.351 18.2792 112.587 18.3119C112.823 18.3449 113.077 18.3609 113.35 18.3609C114.188 18.3609 114.939 18.1802 115.604 17.8199C116.267 17.459 116.848 16.9169 117.344 16.1935L117.345 16.1924C117.782 15.5621 118.11 14.8543 118.328 14.0697C118.546 13.2805 118.657 12.4098 118.657 11.4577C118.657 10.4646 118.531 9.56388 118.281 8.75651C118.03 7.9524 117.656 7.23478 117.157 6.60488C116.727 6.06388 116.234 5.65746 115.679 5.38736C115.123 5.11762 114.499 4.98211 113.808 4.98211C113.535 4.98211 113.27 5.00395 113.016 5.04726C112.761 5.09014 112.516 5.15547 112.281 5.24019H112.28C112.043 5.32607 111.748 5.4668 111.396 5.66243C111.037 5.8618 110.626 6.11504 110.16 6.42238L109.763 6.68463V6.17074ZM97.1763 12.4407C97.5688 12.3537 98.0338 12.267 98.5714 12.1835L98.871 12.1371V12.474V14.8125V14.979L98.741 15.0642C98.5125 15.2131 98.293 15.3454 98.083 15.4607C97.8727 15.5763 97.6725 15.6733 97.4856 15.7515V15.7518C97.2943 15.8321 97.1124 15.894 96.9404 15.9349C96.7635 15.9775 96.5973 15.9991 96.4424 15.9991C96.2072 15.9991 95.9924 15.9632 95.7985 15.8937C95.5966 15.8214 95.4184 15.7121 95.2667 15.5687L95.2647 15.5664C95.1103 15.4184 94.9948 15.2508 94.9166 15.0636C94.8384 14.8747 94.7995 14.6697 94.7995 14.4475C94.7995 14.275 94.8299 14.1039 94.8911 13.933L94.8914 13.9336C94.9501 13.7707 95.0353 13.6119 95.1467 13.4575C95.2597 13.3012 95.4091 13.1593 95.5937 13.0335C95.7695 12.9135 95.9795 12.8064 96.2206 12.7123L96.2213 12.7111C96.4544 12.6227 96.7728 12.5313 97.1763 12.4407ZM98.871 9.26979V10.2588V10.5306L98.6264 10.5514C97.8835 10.612 97.1951 10.6936 96.5637 10.7955C95.9335 10.8973 95.3602 11.0194 94.8458 11.1633C94.336 11.302 93.8928 11.4533 93.5139 11.6144C93.1422 11.7732 92.8384 11.9412 92.6011 12.1164V12.1158C92.367 12.2904 92.1616 12.4799 91.9867 12.6831C91.8139 12.8822 91.6707 13.0959 91.5561 13.3237L91.5552 13.3239C91.4386 13.5529 91.3516 13.7917 91.2945 14.0406C91.2364 14.2869 91.2084 14.5471 91.2084 14.8216C91.2084 15.3056 91.2916 15.7492 91.4571 16.1513C91.6243 16.5557 91.8766 16.9238 92.2137 17.254C92.553 17.5866 92.9459 17.8366 93.3912 18.0035C93.8412 18.1723 94.3489 18.2568 94.9143 18.2568C95.2155 18.2568 95.522 18.2272 95.8322 18.1689C96.145 18.1096 96.465 18.0208 96.7899 17.902H96.792C97.1189 17.7857 97.4637 17.6269 97.8284 17.4278V17.4272C98.1976 17.2246 98.5851 16.9813 98.99 16.6979L99.193 16.5557L99.3381 16.7676C99.5074 17.0143 99.6975 17.2305 99.9064 17.4161C100.116 17.602 100.347 17.758 100.595 17.8816H100.597C100.844 18.0062 101.12 18.0997 101.421 18.1616C101.73 18.2249 102.069 18.2568 102.437 18.2568C102.751 18.2568 103.069 18.2284 103.39 18.1715C103.656 18.1248 103.927 18.0578 104.203 17.9708V15.9758C104.132 15.9968 104.064 16.0143 103.999 16.0295C103.821 16.0704 103.666 16.0897 103.532 16.0897C103.396 16.0897 103.261 16.0718 103.131 16.0333C103.004 15.9959 102.883 15.9399 102.768 15.8631V15.8634C102.652 15.7886 102.554 15.7045 102.476 15.6135C102.39 15.513 102.325 15.4032 102.282 15.2867C102.243 15.1778 102.214 15.0143 102.197 14.7979C102.182 14.6011 102.174 14.3512 102.174 14.0507V9.26979C102.174 8.71768 102.137 8.24029 102.061 7.83854C101.989 7.44998 101.882 7.1308 101.74 6.8829H101.741C101.597 6.63562 101.396 6.40171 101.138 6.18246C100.874 5.95793 100.548 5.75028 100.162 5.55851L100.16 5.55759C99.7772 5.36662 99.3498 5.22295 98.8804 5.12664C98.409 5.03027 97.8899 4.98211 97.3257 4.98211C96.7632 4.98211 96.2306 5.02971 95.729 5.12455C95.2298 5.21915 94.7572 5.3619 94.3111 5.55054C93.8663 5.73973 93.4803 5.95352 93.1507 6.19264C92.8278 6.42735 92.5586 6.68782 92.3438 6.97314H92.3426C92.1898 7.17515 92.075 7.39477 91.9976 7.62831C91.9208 7.86013 91.8824 8.10858 91.8824 8.37169C91.8824 8.59628 91.9182 8.79915 91.9888 8.9822C92.0596 9.16446 92.1666 9.33034 92.309 9.48039L92.3098 9.48119C92.454 9.63308 92.6172 9.74694 92.8 9.82196C92.9875 9.89969 93.1981 9.9379 93.4325 9.9379C93.6206 9.9379 93.7935 9.91134 93.9517 9.85901C94.1081 9.80761 94.2546 9.73056 94.3898 9.62836V9.62866C94.5203 9.52646 94.6439 9.38923 94.7599 9.21728C94.8803 9.03833 94.9937 8.81958 95.0985 8.56321H95.0978C95.1879 8.33814 95.2735 8.14686 95.3549 7.99043C95.441 7.82363 95.5254 7.69254 95.6069 7.59622L95.6086 7.59297C95.6904 7.5001 95.785 7.41728 95.8911 7.34244C95.9924 7.27269 96.1073 7.20877 96.2344 7.15184L96.2385 7.14975C96.3668 7.09491 96.5007 7.05399 96.6417 7.02534C96.7811 6.99823 96.9266 6.98387 97.0793 6.98387C97.2741 6.98387 97.4566 7.00522 97.6269 7.04786C97.8006 7.09049 97.959 7.15589 98.1015 7.2441H98.102C98.2415 7.32962 98.3628 7.42832 98.4627 7.5396C98.5672 7.65548 98.649 7.78517 98.7094 7.92878L98.7111 7.93461C98.768 8.07509 98.8083 8.26133 98.8347 8.4923C98.8587 8.70658 98.871 8.96589 98.871 9.26979ZM89.576 1.99275V0H70.0623V1.99275H70.5718C70.8627 1.99275 71.109 2.01998 71.308 2.07513C71.5371 2.13795 71.7108 2.24212 71.8277 2.38757V2.38665C71.9413 2.52768 72.0231 2.75024 72.0723 3.05439C72.1171 3.32339 72.1389 3.66349 72.1389 4.07315V14.1964C72.1389 14.5357 72.1159 14.8216 72.0714 15.0541C72.0217 15.315 71.9404 15.5171 71.8277 15.6552V15.6549C71.709 15.8029 71.5163 15.9086 71.2518 15.9717C71.0214 16.026 70.7291 16.0537 70.3722 16.0537H70.0623V18.0421H77.7616V15.8193H74.7533H74.5063V15.5363C74.5063 14.1158 75.7466 12.514 76.6088 11.7435H76.6097C76.7392 11.6276 76.8446 11.4816 76.922 11.3101C77.0022 11.1359 77.0527 10.9348 77.0735 10.711L77.2803 6.47612C77.3796 5.38558 76.5613 5.00199 75.8416 4.66446L75.6919 4.59343H75.691C75.5556 4.52981 75.4463 4.42295 75.3702 4.2886C75.2949 4.15634 75.2532 3.99868 75.2532 3.83139V3.28161V2.99924H75.5006H84.0806H84.3284V3.28161V3.83139C84.3284 3.99868 84.2865 4.15665 84.2106 4.28952C84.135 4.4235 84.0246 4.52981 83.8907 4.59343H83.8892L83.7383 4.66471C83.0192 5.00278 82.2018 5.38619 82.3008 6.47679L82.5079 10.711C82.529 10.935 82.5797 11.1359 82.6591 11.3111C82.7358 11.4804 82.8413 11.6261 82.9728 11.7435C83.8347 12.5149 85.0535 14.105 85.0749 15.5363V15.8193H84.8273H81.8512V18.0421H89.576V16.0537H89.3436C88.9695 16.0537 88.6616 16.0292 88.4193 15.9802C88.1445 15.9235 87.9456 15.8289 87.8229 15.6966C87.6975 15.5611 87.6093 15.3434 87.5569 15.0452C87.5114 14.7863 87.4877 14.4542 87.4877 14.0507V3.95433C87.4877 3.57012 87.5097 3.25156 87.5519 2.99924C87.6005 2.71073 87.6822 2.49823 87.7988 2.36272C87.914 2.22641 88.095 2.12856 88.337 2.06992C88.5474 2.01851 88.8107 1.99275 89.1307 1.99275H89.576ZM52.7527 16.0537V18.0421H63.8184C64.5309 18.0421 65.0881 18.1943 65.497 18.5417C65.8677 18.8553 66.1029 19.3152 66.2086 19.9497H68.1337V16.0537H67.786C67.6155 16.0537 67.5979 16.0544 67.568 16.0544C66.6695 16.0674 65.969 16.0767 65.969 14.6122V8.74486C65.969 8.45868 65.993 8.22103 66.0393 8.03215C66.0968 7.80296 66.1908 7.63708 66.3223 7.53463C66.4381 7.44347 66.6205 7.38041 66.8702 7.34299C67.092 7.31005 67.3729 7.29404 67.7137 7.29404H67.8109V5.30147H61.112V7.29809C61.3372 7.30398 61.5286 7.31882 61.6865 7.34219C61.9343 7.37833 62.1107 7.44317 62.2162 7.53488L62.2231 7.5404C62.336 7.64585 62.4151 7.82283 62.4614 8.07325C62.4989 8.27618 62.5177 8.53634 62.5177 8.85466V15.4502V15.7442H62.2542H58.3107H58.0473V15.4502V8.85466C58.0473 8.53205 58.0646 8.26777 58.1021 8.06251C58.1466 7.8129 58.2274 7.63708 58.3446 7.53427H58.3441C58.4487 7.43943 58.6277 7.37544 58.8773 7.33986C59.0357 7.31735 59.2273 7.30336 59.4524 7.29747V5.30147H52.7527V7.29404H52.8508C53.1956 7.29404 53.4789 7.31121 53.7004 7.34508C53.9523 7.38391 54.1354 7.44998 54.2487 7.54132L54.2496 7.54218C54.3785 7.64671 54.4696 7.81369 54.5247 8.04092C54.5692 8.22778 54.5915 8.4634 54.5915 8.74486V14.6122C54.5915 14.8946 54.5675 15.1296 54.5206 15.317C54.4641 15.5431 54.3697 15.7083 54.2382 15.8117L54.2341 15.8152C54.1199 15.9025 53.938 15.9658 53.689 16.0032C53.4689 16.0368 53.1891 16.0537 52.8508 16.0537H52.7527ZM40.8276 14.4888V12.7932V12.4994H41.0907H45.0302H45.2935V12.7932V14.4888C45.2935 14.7892 45.278 15.0368 45.2475 15.2315C45.2118 15.4645 45.1491 15.6365 45.0601 15.7465C44.9669 15.8619 44.8195 15.9449 44.6179 15.9936C44.4551 16.0336 44.2486 16.0537 43.9986 16.0537H43.8885V18.0421H50.5915V16.0537H50.4945C50.1503 16.0537 49.8669 16.0368 49.6458 16.0035C49.3944 15.9658 49.2122 15.9022 49.0991 15.8128L49.0962 15.8093C48.9675 15.7057 48.8753 15.5405 48.8187 15.3142C48.7727 15.1267 48.7493 14.8928 48.7493 14.6122V8.74486C48.7493 8.45868 48.7727 8.22103 48.8196 8.03215C48.8774 7.80149 48.9729 7.63383 49.1067 7.53255H49.107C49.2224 7.44255 49.4035 7.37986 49.6502 7.34299C49.8725 7.31005 50.1538 7.29404 50.4945 7.29404H50.5915V5.30147H43.8885V7.29404H43.9986C44.2436 7.29404 44.4471 7.31238 44.6101 7.35005C44.8072 7.39593 44.9537 7.4747 45.048 7.58917C45.1429 7.69843 45.2083 7.87038 45.2458 8.10251C45.2777 8.30164 45.2935 8.55217 45.2935 8.85466V10.2588V10.5522H45.0302H41.0907H40.8276V10.2588V8.85466C40.8276 8.55653 40.8434 8.30808 40.875 8.1095C40.9126 7.87713 40.9782 7.70456 41.0725 7.59353H41.0722C41.1671 7.47967 41.3139 7.39998 41.5105 7.35176C41.6728 7.3133 41.8775 7.29404 42.122 7.29404H42.2326V5.30147H35.5332V7.29404H35.631C35.9756 7.29404 36.2582 7.31121 36.4801 7.34508V7.34569C36.73 7.38391 36.911 7.44906 37.0258 7.53899L37.0302 7.54218C37.1588 7.64726 37.2496 7.81431 37.3044 8.04092C37.3492 8.22778 37.3715 8.4634 37.3715 8.74486V14.6122C37.3715 14.8946 37.3478 15.1296 37.3009 15.317C37.2437 15.5431 37.1495 15.7083 37.0188 15.8117L37.015 15.8152C36.8998 15.903 36.7179 15.9658 36.4695 16.0032C36.2489 16.0368 35.9688 16.0537 35.631 16.0537H35.5332V18.0421H42.2326V16.0537H42.122C41.8794 16.0537 41.6752 16.0345 41.5134 15.9965C41.3168 15.9501 41.1698 15.8719 41.0758 15.7626C40.9793 15.6511 40.9128 15.4776 40.875 15.2414C40.8428 15.0411 40.8276 14.7909 40.8276 14.4888ZM26.3076 12.4407C26.6998 12.3537 27.165 12.267 27.7032 12.1835L28.0023 12.1371V12.474V14.8125V14.979L27.8719 15.0642C27.644 15.2131 27.4248 15.3454 27.2151 15.4604L27.2157 15.4607C27.0079 15.5752 26.8075 15.6724 26.6177 15.7515V15.7518C26.4261 15.8321 26.2439 15.894 26.0719 15.9349C25.8953 15.9775 25.7289 15.9991 25.5739 15.9991C25.3387 15.9991 25.1245 15.9632 24.9297 15.8937C24.7273 15.8214 24.5497 15.7121 24.3986 15.5687L24.3959 15.5664C24.2421 15.4184 24.1263 15.2505 24.0485 15.0636C23.9699 14.8747 23.9307 14.6697 23.9307 14.4475C23.9307 14.275 23.9624 14.1039 24.0226 13.933H24.0232C24.0815 13.771 24.1672 13.6119 24.2778 13.4583C24.3898 13.3015 24.5398 13.1599 24.7249 13.0335C24.9001 12.9138 25.1104 12.8064 25.3521 12.7123L25.353 12.7111C25.586 12.6227 25.9038 12.5313 26.3076 12.4407ZM28.0023 9.26979V10.2588V10.5306L27.7576 10.5514C27.0144 10.612 26.3268 10.6936 25.6952 10.7955C25.0667 10.8973 24.4941 11.0194 23.9784 11.1633H23.977C23.4675 11.302 23.0237 11.4533 22.6458 11.6144C22.2734 11.7732 21.9696 11.9412 21.7326 12.1164V12.1158C21.4983 12.2904 21.2937 12.4799 21.1186 12.6827C20.9466 12.8822 20.8024 13.0959 20.6876 13.3237L20.6867 13.3239C20.5708 13.5529 20.4833 13.7917 20.426 14.0406C20.3685 14.2873 20.3395 14.5471 20.3395 14.8216C20.3395 15.3056 20.4225 15.7492 20.5892 16.1513C20.7556 16.5553 21.0075 16.9232 21.3447 17.254L21.3444 17.2549C21.6839 17.5866 22.0765 17.8366 22.5224 18.0035C22.9727 18.1723 23.4807 18.2568 24.0456 18.2568C24.3473 18.2568 24.6535 18.2272 24.9637 18.1689C25.2763 18.1096 25.5968 18.0208 25.9219 17.902H25.9235C26.2501 17.7857 26.5954 17.6269 26.9602 17.4278V17.4272C27.3291 17.2246 27.7164 16.9813 28.1218 16.6979L28.3251 16.5553L28.4699 16.7676C28.6386 17.0143 28.8281 17.2305 29.0376 17.4161C29.248 17.602 29.4779 17.7577 29.727 17.8816H29.7282C29.9757 18.0062 30.251 18.0997 30.5531 18.1616C30.8605 18.2249 31.1999 18.2568 31.5682 18.2568C31.8829 18.2568 32.2007 18.2284 32.5215 18.1715C32.7872 18.1248 33.0582 18.0578 33.3345 17.9708V15.9758C33.2636 15.9968 33.1953 16.0143 33.13 16.0295C32.9519 16.0704 32.7963 16.0897 32.6639 16.0897C32.5294 16.0897 32.3967 16.0718 32.2675 16.0339C32.1389 15.9968 32.0156 15.9399 31.8996 15.8631V15.8634C31.7832 15.7883 31.6856 15.7045 31.6069 15.6131C31.5199 15.513 31.456 15.404 31.4135 15.2867V15.2859C31.3742 15.1755 31.3456 15.0117 31.3286 14.7968C31.3134 14.6002 31.3052 14.3506 31.3052 14.0507V9.26979C31.3052 8.71768 31.2676 8.24029 31.193 7.83854C31.1203 7.44936 31.0131 7.1308 30.8715 6.8829H30.8718C30.728 6.63562 30.528 6.40232 30.2693 6.18246C30.005 5.95793 29.6795 5.75028 29.293 5.55851L29.2919 5.55759C28.9078 5.36662 28.4809 5.22295 28.0111 5.12664C27.5396 5.03027 27.0215 4.98211 26.4563 4.98211C25.8944 4.98211 25.3615 5.02971 24.86 5.12486C24.361 5.21915 23.8885 5.36135 23.4432 5.55054C22.9985 5.73973 22.6112 5.95352 22.2827 6.19264C21.959 6.42735 21.6895 6.68782 21.4748 6.97314L21.4739 6.97455C21.3209 7.17693 21.2055 7.39593 21.1291 7.62806C21.0529 7.86013 21.0148 8.10834 21.0148 8.37169C21.0148 8.59566 21.0497 8.79915 21.1203 8.9822C21.1909 9.16446 21.2976 9.33034 21.4408 9.48039L21.4417 9.48119C21.5849 9.63308 21.7478 9.74694 21.9307 9.82196C22.1187 9.89969 22.3293 9.9379 22.564 9.9379C22.7524 9.9379 22.9252 9.91134 23.0834 9.85901C23.2402 9.80761 23.3861 9.73056 23.5208 9.62836L23.5214 9.62866C23.6518 9.52646 23.7757 9.38923 23.8911 9.21666C24.0124 9.03772 24.1252 8.81958 24.2301 8.56321C24.3192 8.33814 24.4044 8.14778 24.4861 7.99068C24.5735 7.82192 24.6573 7.69082 24.7375 7.59622L24.7408 7.59156C24.8205 7.50102 24.9147 7.41869 25.0226 7.34244C25.1239 7.27269 25.2382 7.20877 25.3662 7.15184L25.3701 7.14975C25.4983 7.09491 25.6319 7.05399 25.7725 7.02534C25.9126 6.99823 26.0581 6.98387 26.2108 6.98387C26.4048 6.98387 26.5875 7.00522 26.758 7.04786C26.9321 7.09049 27.09 7.15589 27.2327 7.2441C27.373 7.32962 27.4931 7.42832 27.5942 7.5396C27.6994 7.65659 27.7828 7.78597 27.8418 7.92878L27.843 7.93461C27.8986 8.07509 27.9405 8.26133 27.9662 8.4923C27.99 8.70658 28.0023 8.96589 28.0023 9.26979ZM7.9305 0H0V1.99275H0.445633C0.668881 1.99275 0.863447 2.00569 1.02804 2.03072C1.20647 2.05765 1.35001 2.10108 1.45779 2.16034L1.46216 2.16335C1.57123 2.2258 1.66577 2.30493 1.7461 2.39922L1.74635 2.40039C1.8263 2.49474 1.89167 2.60387 1.94208 2.72656L1.94386 2.73092C1.99009 2.85121 2.02474 3.01912 2.04604 3.2361C2.06574 3.43369 2.07632 3.67281 2.07632 3.95433V14.1284C2.07632 14.4224 2.06715 14.6688 2.04875 14.8657C2.02936 15.0791 1.99563 15.2397 1.94793 15.3469C1.89955 15.4701 1.8351 15.5781 1.75576 15.6692C1.67464 15.7629 1.57738 15.8394 1.46542 15.8972L1.45927 15.9007C1.34915 15.9542 1.19675 15.9947 1.00458 16.0193C0.829962 16.0418 0.618227 16.0537 0.369743 16.0537H0V18.0421H7.9305V16.0537H7.48524C7.24845 16.0537 7.04748 16.0427 6.88289 16.0228C6.69891 16.0001 6.5571 15.9638 6.45603 15.9162L6.45339 15.9147C6.34622 15.8619 6.25242 15.7906 6.17099 15.7025C6.09251 15.6178 6.02658 15.5171 5.97119 15.4011L5.9686 15.395C5.91493 15.2771 5.87511 15.1217 5.85018 14.9287C5.82765 14.7538 5.81676 14.5445 5.81676 14.3015V12.4191V12.2819L5.91345 12.1935L8.54928 9.77736L8.76428 9.58075L8.92807 9.83129L11.9758 14.4893L11.9792 14.4928C12.1093 14.6989 12.2098 14.8716 12.2796 15.0105C12.366 15.1827 12.4094 15.3215 12.4094 15.4227C12.4094 15.5506 12.368 15.6619 12.2855 15.7595C12.2251 15.83 12.1451 15.8879 12.0437 15.9349L12.0434 15.934C11.9485 15.9793 11.79 16.0108 11.5685 16.0286C11.3655 16.0452 11.1021 16.0537 10.7791 16.0537H10.6947V18.0421H18.926V16.0537H18.8536C18.5888 16.0537 18.3535 16.0316 18.145 15.9871C17.9282 15.9413 17.7418 15.8704 17.5845 15.7766V15.7773C17.4601 15.7045 17.3088 15.5629 17.1312 15.3545C16.9694 15.1647 16.7771 14.9103 16.5539 14.5915L16.5521 14.5889L11.5556 7.33667L11.4024 7.11442L11.5958 6.93455L15.7851 3.0328C15.9475 2.88158 16.0977 2.7484 16.2372 2.63313C16.3772 2.51713 16.5023 2.42345 16.6122 2.35162C16.7191 2.28303 16.8199 2.22285 16.9162 2.17353C17.0153 2.12304 17.1076 2.08538 17.1952 2.06262C17.2816 2.03747 17.3959 2.01931 17.5377 2.0082C17.6736 1.99771 17.8332 1.99275 18.0172 1.99275V0H10.6947V1.99275H11.1273C11.328 1.99275 11.4956 2.00072 11.6301 2.01673C11.7885 2.03606 11.9083 2.07188 11.9895 2.12593L11.9936 2.1274C12.0795 2.18611 12.1454 2.26083 12.192 2.35254C12.2376 2.44449 12.2612 2.54694 12.2612 2.65994C12.2612 2.72355 12.2482 2.79048 12.2248 2.86146C12.2066 2.91575 12.1817 2.97213 12.1504 3.0293L12.1409 3.04513C12.1047 3.10439 12.0437 3.18199 11.9594 3.2764L11.9591 3.27579C11.8867 3.35609 11.7885 3.45915 11.6623 3.58435V3.58583L6.2542 8.96441L5.81676 9.39954V8.74486V3.79551C5.81676 3.53736 5.82827 3.3175 5.85165 3.13445C5.878 2.93237 5.92109 2.77091 5.98172 2.65H5.98202C6.03976 2.53062 6.1159 2.42554 6.21056 2.33407C6.30166 2.24653 6.40833 2.17267 6.52989 2.11194C6.62007 2.06495 6.7633 2.03342 6.95965 2.01557C7.13427 2.00011 7.35893 1.99275 7.63315 1.99275H7.9305V0ZM120.793 16.0537V18.0421H127.28V16.0537C127.078 16.0534 126.903 16.0309 126.758 15.9871C126.586 15.9357 126.451 15.8529 126.353 15.7416C126.256 15.6303 126.186 15.477 126.144 15.2823C126.106 15.1141 126.087 14.9115 126.087 14.6756V13.955V13.806L126.197 13.7178L127.764 12.4641L127.965 12.3032L128.121 12.5184L129.552 14.4919L129.554 14.4943C129.691 14.6884 129.797 14.8569 129.871 14.9985C129.964 15.1722 130.009 15.3182 130.009 15.4367C130.009 15.6768 129.891 15.8487 129.654 15.9521C129.498 16.0193 129.279 16.0537 128.999 16.0537H128.974V18.0421H136V16.0508C135.793 16.0444 135.609 16.0318 135.449 16.0125C135.208 15.9831 135.02 15.9376 134.887 15.8774L134.881 15.8742C134.748 15.8093 134.598 15.6978 134.433 15.5398C134.277 15.3912 134.105 15.2003 133.915 14.9673V14.9661L130.481 10.6766L130.279 10.4238L130.533 10.2375L133.156 8.31421L133.157 8.31329C133.461 8.09312 133.723 7.91326 133.941 7.77523C134.168 7.63119 134.351 7.5293 134.492 7.47182V7.47237C134.639 7.41078 134.816 7.36526 135.02 7.3363C135.147 7.31882 135.283 7.30649 135.426 7.2998V5.30147H128.74V7.2998C128.989 7.31066 129.189 7.33894 129.338 7.38391C129.645 7.47593 129.797 7.64966 129.797 7.90633C129.797 8.05202 129.73 8.20851 129.593 8.37402C129.492 8.49843 129.346 8.6383 129.157 8.79332V8.79356L126.508 10.9995L126.087 11.3496V10.7647V8.68149C126.087 8.44114 126.102 8.23796 126.131 8.07128C126.163 7.87854 126.219 7.72787 126.296 7.61721L126.302 7.6088C126.393 7.48672 126.546 7.40176 126.756 7.3533C126.866 7.32729 126.996 7.31066 127.144 7.30189V5.30147H120.793V7.29404H120.891C121.236 7.29404 121.519 7.31121 121.74 7.34508V7.34569C121.989 7.38391 122.172 7.44906 122.286 7.53899L122.29 7.54218C122.418 7.64726 122.51 7.81369 122.565 8.04092C122.609 8.22778 122.631 8.4634 122.631 8.74486V14.6122C122.631 14.8946 122.608 15.1296 122.561 15.317C122.504 15.5431 122.41 15.7083 122.278 15.8117L122.275 15.8152C122.16 15.9025 121.978 15.9658 121.729 16.0032C121.509 16.0368 121.23 16.0537 120.891 16.0537H120.793ZM79.8206 23.6041C79.5098 21.3679 79.3062 20.008 79.3062 15.7576H79.8206H80.3344C80.3344 20.008 80.1302 21.3679 79.8206 23.6041Z" fill="#E0001B"/>
</svg>
