<svg width="16" height="16" viewBox="0 0 16 16" fill="none" xmlns="http://www.w3.org/2000/svg">
<path d="M15.5312 3.15625H12.6719V1.72253C12.6719 0.772705 11.8992 0 10.9493 0H5.05066C4.10083 0 3.32812 0.772705 3.32812 1.72253V3.15625H0.46875C0.209839 3.15625 0 3.36609 0 3.625V8.15625C0 8.36694 0.140625 8.55188 0.34375 8.60803L0.84375 8.74634V15.5312C0.84375 15.7902 1.05359 16 1.3125 16H14.6875C14.9464 16 15.1562 15.7902 15.1562 15.5312V8.73999L15.6508 8.6095C15.8566 8.55518 16 8.36914 16 8.15625V3.625C16 3.36609 15.7902 3.15625 15.5312 3.15625ZM4.26562 1.72253C4.26562 1.28967 4.6178 0.9375 5.05066 0.9375H10.9493C11.3822 0.9375 11.7344 1.28967 11.7344 1.72253V3.15625H4.26562V1.72253ZM0.9375 4.09375H15.0625V7.79504L10.25 9.06433V8.71875C10.25 8.45984 10.0402 8.25 9.78125 8.25H6.21875C5.95984 8.25 5.75 8.45984 5.75 8.71875V9.13086L0.9375 7.79956V4.09375ZM9.3125 9.1875V11.0625H6.6875V9.1875H9.3125ZM14.2188 15.0625H1.78125V9.00574L5.75 10.1035V11.5312C5.75 11.7902 5.95984 12 6.21875 12H9.78125C10.0402 12 10.25 11.7902 10.25 11.5312V10.0339L14.2188 8.98718V15.0625Z" fill="#1D1D1B"/>
</svg>
