<svg width="27" height="24" viewBox="0 0 27 24" fill="none" xmlns="http://www.w3.org/2000/svg">
<path d="M25.0137 9.29154L23.3439 9.50919V8.06396C25.216 7.69901 26.6334 6.04665 26.6334 4.06949C26.6334 1.82553 24.8077 0 22.5638 0C20.3199 0 18.4943 1.82563 18.4943 4.06949C18.4943 6.0467 19.9117 7.69911 21.7837 8.06396V9.71258L4.84966 11.9201V10.7508C6.72169 10.3858 8.13898 8.73344 8.13898 6.75633C8.13898 4.51242 6.3134 2.68684 4.06949 2.68684C1.82558 2.68684 0 4.51242 0 6.75633C0 8.73349 1.41734 10.3859 3.28932 10.7508V12.1235L1.47388 12.3601C1.04661 12.4158 0.745421 12.8073 0.801132 13.2345C0.85237 13.6276 1.18778 13.9139 1.57376 13.9139C1.60736 13.9139 1.64138 13.9117 1.67561 13.9073L12.2286 12.5316L9.94047 22.4397H9.22912C8.79825 22.4397 8.44895 22.789 8.44895 23.2198C8.44895 23.6507 8.79825 24 9.22912 24H17.408C17.8389 24 18.1882 23.6507 18.1882 23.2198C18.1882 22.789 17.8389 22.4397 17.408 22.4397H16.6885L14.2029 12.2742L25.2153 10.8386C25.6425 10.783 25.9438 10.3914 25.8881 9.96419C25.8323 9.53702 25.4407 9.23573 25.0137 9.29154ZM1.56029 6.75633C1.56029 5.37275 2.68591 4.24713 4.06949 4.24713C5.45307 4.24713 6.57869 5.3728 6.57869 6.75633C6.57869 8.13986 5.45307 9.26553 4.06949 9.26553C2.68591 9.26553 1.56029 8.13986 1.56029 6.75633ZM15.0824 22.4397H11.5418L13.2615 14.9933L15.0824 22.4397ZM20.0545 4.06944C20.0545 2.68586 21.1802 1.56023 22.5637 1.56023C23.9474 1.56023 25.073 2.68591 25.073 4.06944C25.073 5.45307 23.9473 6.57869 22.5637 6.57869C21.1802 6.57869 20.0545 5.45307 20.0545 4.06944Z" fill="#1D1D1B"/>
</svg>
