<svg width="16" height="16" viewBox="0 0 16 16" fill="none" xmlns="http://www.w3.org/2000/svg">
<path d="M15.5312 13.1875H15.0625V1.40625C15.0625 0.630859 14.4316 0 13.6562 0C12.9337 0 12.3369 0.547852 12.2589 1.25H11.3125C11.3125 0.991089 11.1025 0.78125 10.8438 0.78125C10.5848 0.78125 10.375 0.991089 10.375 1.25H9.4375C9.4375 0.991089 9.22754 0.78125 8.96875 0.78125C8.70984 0.78125 8.5 0.991089 8.5 1.25H7.5625C7.5625 0.991089 7.35254 0.78125 7.09375 0.78125C6.83484 0.78125 6.625 0.991089 6.625 1.25H3.74109C3.66309 0.547852 3.06628 0 2.34375 0C1.56836 0 0.9375 0.630859 0.9375 1.40625V13.1875H0.46875C0.209839 13.1875 0 13.3973 0 13.6562V15.5312C0 15.7902 0.209839 16 0.46875 16H15.5312C15.7902 16 16 15.7902 16 15.5312V13.6562C16 13.3973 15.7902 13.1875 15.5312 13.1875ZM13.6562 0.9375C13.9147 0.9375 14.125 1.14783 14.125 1.40625V13.1875H13.1875V1.40625C13.1875 1.14783 13.3978 0.9375 13.6562 0.9375ZM3.75 13.1875V11.5625H4.6875C4.6875 11.8214 4.89734 12.0312 5.15625 12.0312C5.41516 12.0312 5.625 11.8214 5.625 11.5625H8.5C8.5 11.8214 8.70984 12.0312 8.96875 12.0312C9.22754 12.0312 9.4375 11.8214 9.4375 11.5625H10.375C10.375 11.8214 10.5848 12.0312 10.8438 12.0312C11.1025 12.0312 11.3125 11.8214 11.3125 11.5625H12.25V13.1875H3.75ZM7.09375 2.65625C7.35254 2.65625 7.5625 2.44641 7.5625 2.1875H8.5C8.5 2.44641 8.70984 2.65625 8.96875 2.65625C9.22754 2.65625 9.4375 2.44641 9.4375 2.1875H10.375C10.375 2.44641 10.5848 2.65625 10.8438 2.65625C11.1025 2.65625 11.3125 2.44641 11.3125 2.1875H12.25V3.59375H11.3125C11.3125 3.33496 11.1025 3.125 10.8438 3.125C10.5848 3.125 10.375 3.33496 10.375 3.59375H9.4375C9.4375 3.33496 9.22754 3.125 8.96875 3.125C8.70984 3.125 8.5 3.33496 8.5 3.59375H7.5625C7.5625 3.33496 7.35254 3.125 7.09375 3.125C6.83484 3.125 6.625 3.33496 6.625 3.59375H3.75V2.1875H6.625C6.625 2.44641 6.83484 2.65625 7.09375 2.65625ZM10.8438 10.1562C10.5848 10.1562 10.375 10.3662 10.375 10.625H9.4375C9.4375 10.3662 9.22754 10.1562 8.96875 10.1562C8.70984 10.1562 8.5 10.3662 8.5 10.625H5.625C5.625 10.3662 5.41516 10.1562 5.15625 10.1562C4.89734 10.1562 4.6875 10.3662 4.6875 10.625H3.75V9.21875H6.625C6.625 9.47766 6.83484 9.6875 7.09375 9.6875C7.35254 9.6875 7.5625 9.47766 7.5625 9.21875H8.5C8.5 9.47766 8.70984 9.6875 8.96875 9.6875C9.22754 9.6875 9.4375 9.47766 9.4375 9.21875H10.375C10.375 9.47766 10.5848 9.6875 10.8438 9.6875C11.1025 9.6875 11.3125 9.47766 11.3125 9.21875H12.25V10.625H11.3125C11.3125 10.3662 11.1025 10.1562 10.8438 10.1562ZM7.09375 5C7.35254 5 7.5625 4.79016 7.5625 4.53125H8.5C8.5 4.79016 8.70984 5 8.96875 5C9.22754 5 9.4375 4.79016 9.4375 4.53125H10.375C10.375 4.79016 10.5848 5 10.8438 5C11.1025 5 11.3125 4.79016 11.3125 4.53125H12.25V5.9375H9.375C9.375 5.67871 9.16516 5.46875 8.90625 5.46875C8.64734 5.46875 8.4375 5.67871 8.4375 5.9375H7.5C7.5 5.67871 7.29016 5.46875 7.03125 5.46875C6.77234 5.46875 6.5625 5.67871 6.5625 5.9375H5.625C5.625 5.67871 5.41516 5.46875 5.15625 5.46875C4.89734 5.46875 4.6875 5.67871 4.6875 5.9375H3.75V4.53125H6.625C6.625 4.79016 6.83484 5 7.09375 5ZM11.3125 8.28125C11.3125 8.02234 11.1025 7.8125 10.8438 7.8125C10.5848 7.8125 10.375 8.02234 10.375 8.28125H9.4375C9.4375 8.02234 9.22754 7.8125 8.96875 7.8125C8.70984 7.8125 8.5 8.02234 8.5 8.28125H7.5625C7.5625 8.02234 7.35254 7.8125 7.09375 7.8125C6.83484 7.8125 6.625 8.02234 6.625 8.28125H3.75V6.875H4.6875C4.6875 7.13391 4.89734 7.34375 5.15625 7.34375C5.41516 7.34375 5.625 7.13391 5.625 6.875H6.5625C6.5625 7.13391 6.77234 7.34375 7.03125 7.34375C7.29016 7.34375 7.5 7.13391 7.5 6.875H8.4375C8.4375 7.13391 8.64734 7.34375 8.90625 7.34375C9.16516 7.34375 9.375 7.13391 9.375 6.875H12.25V8.28125H11.3125ZM1.875 1.40625C1.875 1.14783 2.08533 0.9375 2.34375 0.9375C2.60217 0.9375 2.8125 1.14783 2.8125 1.40625V13.1875H1.875V1.40625ZM15.0625 15.0625H0.9375V14.125H15.0625V15.0625Z" fill="#1D1D1B"/>
</svg>
