<svg width="24" height="22" viewBox="0 0 24 22" fill="none" xmlns="http://www.w3.org/2000/svg">
<path d="M23.2961 0.727539H18.9748C18.1498 0.727539 17.328 1.34939 17.1038 2.14326L15.9365 6.27481C15.8029 6.23764 15.6625 6.21615 15.5162 6.21615H1.55459C1.1103 6.21615 0.68845 6.40047 0.397235 6.72181C0.106019 7.04306 -0.0358819 7.48096 0.00775824 7.92309L0.658888 14.5234C0.745699 15.403 1.50607 16.092 2.39004 16.092H13.2263C14.0547 16.092 14.873 15.4656 15.0892 14.666L16.4466 9.64655L18.4585 2.52607C18.5131 2.33246 18.7737 2.13538 18.9748 2.13538H23.2961C23.6848 2.13538 24 1.82033 24 1.43151C24 1.04269 23.6848 0.727539 23.2961 0.727539ZM13.7303 14.2986C13.6787 14.4897 13.4242 14.6843 13.2263 14.6843H2.38995C2.23547 14.6843 2.07499 14.5389 2.05978 14.3851L1.40865 7.78485C1.40387 7.73595 1.41475 7.69522 1.44037 7.66707C1.46599 7.63882 1.50541 7.6239 1.5545 7.6239H15.5161C15.523 7.6239 15.529 7.62418 15.5343 7.62455C15.5333 7.62981 15.5319 7.63563 15.5302 7.6422L13.7303 14.2986Z" fill="#000002"/>
<path d="M4.4443 16.8937C3.23711 16.8937 2.25488 17.8758 2.25488 19.083C2.25488 20.2902 3.23702 21.2723 4.4443 21.2723C5.65149 21.2723 6.63363 20.2902 6.63363 19.083C6.63363 17.8758 5.65159 16.8937 4.4443 16.8937ZM4.4443 19.8646C4.01334 19.8646 3.66263 19.514 3.66263 19.083C3.66263 18.652 4.01325 18.3014 4.4443 18.3014C4.87526 18.3014 5.22588 18.652 5.22588 19.083C5.22588 19.514 4.87535 19.8646 4.4443 19.8646Z" fill="#000002"/>
<path d="M11.3866 16.8937C10.1794 16.8937 9.19727 17.8758 9.19727 19.083C9.19727 20.2902 10.1794 21.2723 11.3866 21.2723C12.5938 21.2723 13.576 20.2902 13.576 19.083C13.576 17.8758 12.5938 16.8937 11.3866 16.8937ZM11.3866 19.8646C10.9556 19.8646 10.605 19.514 10.605 19.083C10.605 18.652 10.9556 18.3014 11.3866 18.3014C11.8175 18.3014 12.1683 18.652 12.1683 19.083C12.1683 19.514 11.8175 19.8646 11.3866 19.8646Z" fill="#000002"/>
</svg>
