<svg width="16" height="16" viewBox="0 0 16 16" fill="none" xmlns="http://www.w3.org/2000/svg">
<g clip-path="url(#clip0_1_430)">
<path d="M14.0675 8.51977C14.4994 8.08783 14.7103 7.48219 14.64 6.8754L14.3698 4.54301C15.8609 3.46245 16.479 1.64909 15.586 0.756021C15.2046 0.374673 14.6087 0.250283 13.9511 0.414712C13.3686 0.560342 12.7711 0.917154 12.2689 1.41935C12.2628 1.42558 12.257 1.43193 12.2509 1.43803L8.80303 1.03858C8.19623 0.968276 7.59057 1.17914 7.15863 1.61109L1.41419 7.35562C0.633154 8.13667 0.633158 9.40299 1.4142 10.184L5.49449 14.2643C6.27554 15.0454 7.54187 15.0454 8.32292 14.2643L14.0675 8.51977ZM14.1786 1.32487C14.5088 1.24235 14.7799 1.27677 14.9225 1.41935C15.2697 1.76652 14.9517 2.72917 14.2406 3.42876C14.2406 3.42876 14.2849 2.82318 14.1314 2.48576C13.9558 2.09998 13.3639 1.7183 13.3639 1.7183C13.6317 1.52873 13.9135 1.39115 14.1786 1.32487ZM7.84318 2.25343C8.05915 2.03746 8.36197 1.93203 8.66537 1.96718L11.5895 2.30595C11.4463 2.55876 11.3384 2.81828 11.2714 3.07548C11.0896 2.89366 10.7935 2.89488 10.6117 3.0767C10.4285 3.25987 10.4273 3.55808 10.6105 3.74126L11.9372 5.0681C12.1204 5.25131 12.4175 5.25131 12.6007 5.06811C12.7839 4.8849 12.7839 4.58786 12.6006 4.40467L12.2689 4.07304C12.1264 3.93046 12.0919 3.65935 12.1745 3.32915C12.2481 3.03471 12.4094 2.72001 12.6323 2.42668L12.7604 2.44157L13.2371 2.91826L13.7115 7.01316C13.7466 7.31656 13.6412 7.61938 13.4252 7.83535L7.61581 13.6447C7.22529 14.0352 6.59212 14.0352 6.2016 13.6446L2.03389 9.47694C1.64337 9.08641 1.64337 8.45325 2.03389 8.06272L7.84318 2.25343Z" fill="#E0001B"/>
<path d="M5.17871 6.94116C4.40283 6.94116 3.77148 7.57251 3.77148 8.34851C3.77148 9.12439 4.40283 9.75574 5.17871 9.75574C5.95471 9.75574 6.58606 9.12439 6.58606 8.34851C6.58606 7.57251 5.95471 6.94116 5.17871 6.94116ZM5.17871 8.8175C4.92004 8.8175 4.70972 8.60706 4.70972 8.34851C4.70972 8.08984 4.92004 7.87939 5.17871 7.87939C5.43738 7.87939 5.64783 8.08984 5.64783 8.34851C5.64783 8.60706 5.4375 8.8175 5.17871 8.8175Z" fill="#E0001B"/>
<path d="M9.87013 9.75574C10.6461 9.75574 11.2775 9.12439 11.2775 8.34851C11.2775 7.57251 10.6461 6.94116 9.87013 6.94116C9.09412 6.94116 8.46289 7.57251 8.46289 8.34851C8.46289 9.12439 9.09412 9.75574 9.87013 9.75574ZM9.87013 7.87939C10.1288 7.87939 10.3392 8.08984 10.3392 8.34851C10.3392 8.60706 10.1288 8.8175 9.87013 8.8175C9.61146 8.8175 9.40101 8.60706 9.40101 8.34851C9.40101 8.08984 9.61146 7.87939 9.87013 7.87939Z" fill="#E0001B"/>
<path d="M7.45389 5.91958C7.49648 5.66405 7.73815 5.49142 7.99368 5.53399C8.24924 5.57657 8.42189 5.81826 8.3793 6.07382L7.59532 10.7775C7.55272 11.0331 7.31101 11.2057 7.05546 11.1631C6.79992 11.1205 6.6273 10.8788 6.66989 10.6233L7.45389 5.91958Z" fill="#E0001B"/>
</g>
<defs>
<clipPath id="clip0_1_430">
<rect width="16" height="16" fill="white"/>
</clipPath>
</defs>
</svg>
