<svg width="24" height="20" viewBox="0 0 24 20" fill="none" xmlns="http://www.w3.org/2000/svg">
<path d="M23.9887 6.53373C23.8982 4.84218 23.1821 3.25383 21.9722 2.06124C20.7442 0.850749 19.1405 0.184082 17.4568 0.184082C14.9354 0.184082 13.1501 2.13162 12.1911 3.17797C12.1365 3.23746 12.0779 3.30139 12.0206 3.36319C11.9899 3.32834 11.9594 3.29359 11.9303 3.26047C11.0537 2.26187 9.22936 0.184082 6.54364 0.184082C4.85988 0.184082 3.25632 0.850749 2.02831 2.06124C0.818294 3.25383 0.102145 4.84218 0.0116514 6.53373C-0.0782643 8.21527 0.349269 9.67443 1.39755 11.265C2.33704 12.6908 4.78364 14.9452 6.59322 16.4424C8.45314 17.9813 10.9029 19.8159 12.0105 19.8159C13.1355 19.8159 15.5766 17.9852 17.4262 16.4495C19.2218 14.9588 21.6549 12.7062 22.6031 11.2644C23.3087 10.1916 24.1039 8.6843 23.9887 6.53373ZM21.3967 10.471C20.7077 11.5189 18.7655 13.4548 16.5639 15.2887C13.9387 17.4753 12.3844 18.3372 12.0117 18.3714C11.6395 18.3326 10.0814 17.4622 7.44337 15.2714C5.22879 13.4323 3.28376 11.5029 2.60332 10.4704C1.73584 9.15419 1.38128 7.96391 1.45358 6.61075C1.60058 3.86331 3.884 1.62803 6.54354 1.62803C8.5755 1.62803 10.0519 3.30967 10.8452 4.21296C11.3115 4.74418 11.5684 5.03674 12.0003 5.03674C12.4461 5.03674 12.7337 4.723 13.2556 4.15356C14.1215 3.20887 15.5706 1.62803 17.4568 1.62803C20.1164 1.62803 22.3997 3.86331 22.5468 6.61075C22.62 7.97922 22.276 9.13378 21.3967 10.471Z" fill="#1D1D1B"/>
</svg>
