<svg width="12" height="16" viewBox="0 0 12 16" fill="none" xmlns="http://www.w3.org/2000/svg">
<path d="M5.6 15.2374C5.46616 15.0797 5.30113 14.8821 5.11323 14.6505C4.59467 14.0116 3.90408 13.1174 3.21448 12.0953C2.52392 11.0718 1.84053 9.92913 1.3313 8.79245C0.819136 7.64923 0.5 6.54883 0.5 5.6C0.5 2.78014 2.78014 0.5 5.6 0.5C8.41986 0.5 10.7 2.78014 10.7 5.6C10.7 6.54883 10.3809 7.64923 9.8687 8.79245C9.35947 9.92913 8.67608 11.0718 7.98552 12.0953C7.29592 13.1174 6.60533 14.0116 6.08677 14.6505C5.89887 14.8821 5.73384 15.0797 5.6 15.2374ZM3.83223 7.36777C4.30107 7.83661 4.93696 8.1 5.6 8.1C6.26304 8.1 6.89893 7.83661 7.36777 7.36777C7.83661 6.89893 8.1 6.26304 8.1 5.6C8.1 4.93696 7.83661 4.30107 7.36777 3.83223C6.89893 3.36339 6.26304 3.1 5.6 3.1C4.93696 3.1 4.30107 3.36339 3.83223 3.83223C3.36339 4.30107 3.1 4.93696 3.1 5.6C3.1 6.26304 3.36339 6.89893 3.83223 7.36777Z" stroke="#1D1D1B"/>
</svg>
