<svg width="16" height="16" viewBox="0 0 16 16" fill="none" xmlns="http://www.w3.org/2000/svg">
<path d="M15.5312 5.65625C15.7902 5.65625 16 5.44641 16 5.1875V3.3125C16 3.05359 15.7902 2.84375 15.5312 2.84375H14.125V0.46875C14.125 0.209839 13.9152 0 13.6562 0H1.40625C1.14734 0 0.9375 0.209839 0.9375 0.46875V1.90625H0.46875C0.209839 1.90625 0 2.11621 0 2.375C0 2.63391 0.209839 2.84375 0.46875 2.84375H0.9375V3.78125H0.46875C0.209839 3.78125 0 3.99121 0 4.25C0 4.50891 0.209839 4.71875 0.46875 4.71875H0.9375V5.65625H0.46875C0.209839 5.65625 0 5.86621 0 6.125C0 6.38391 0.209839 6.59375 0.46875 6.59375H0.9375V7.53125H0.46875C0.209839 7.53125 0 7.74121 0 8C0 8.25891 0.209839 8.46875 0.46875 8.46875H0.9375V9.40625H0.46875C0.209839 9.40625 0 9.61621 0 9.875C0 10.1339 0.209839 10.3438 0.46875 10.3438H0.9375V11.2812H0.46875C0.209839 11.2812 0 11.4911 0 11.75C0 12.0089 0.209839 12.2188 0.46875 12.2188H0.9375V13.1562H0.46875C0.209839 13.1562 0 13.3662 0 13.625C0 13.8839 0.209839 14.0938 0.46875 14.0938H0.9375V15.5312C0.9375 15.7902 1.14734 16 1.40625 16H13.6562C13.9152 16 14.125 15.7902 14.125 15.5312V13.1562H15.5312C15.7902 13.1562 16 12.9464 16 12.6875V10.8125C16 10.5536 15.7902 10.3438 15.5312 10.3438H14.125V9.40625H15.5312C15.7902 9.40625 16 9.19641 16 8.9375V7.0625C16 6.80359 15.7902 6.59375 15.5312 6.59375H14.125V5.65625H15.5312ZM14.125 3.78125H15.0625V4.71875H14.125V3.78125ZM3.71875 15.0625H1.875V14.0938H2.3125C2.57141 14.0938 2.78125 13.8839 2.78125 13.625C2.78125 13.3662 2.57141 13.1562 2.3125 13.1562H1.875V12.2188H2.3125C2.57141 12.2188 2.78125 12.0089 2.78125 11.75C2.78125 11.4911 2.57141 11.2812 2.3125 11.2812H1.875V10.3438H2.3125C2.57141 10.3438 2.78125 10.1339 2.78125 9.875C2.78125 9.61621 2.57141 9.40625 2.3125 9.40625H1.875V8.46875H2.3125C2.57141 8.46875 2.78125 8.25891 2.78125 8C2.78125 7.74121 2.57141 7.53125 2.3125 7.53125H1.875V6.59375H2.3125C2.57141 6.59375 2.78125 6.38391 2.78125 6.125C2.78125 5.86621 2.57141 5.65625 2.3125 5.65625H1.875V4.71875H2.3125C2.57141 4.71875 2.78125 4.50891 2.78125 4.25C2.78125 3.99121 2.57141 3.78125 2.3125 3.78125H1.875V2.84375H2.3125C2.57141 2.84375 2.78125 2.63391 2.78125 2.375C2.78125 2.11621 2.57141 1.90625 2.3125 1.90625H1.875V0.9375H3.71875V15.0625ZM13.1875 15.0625H4.65625V0.9375H13.1875V15.0625ZM15.0625 11.2812V12.2188H14.125V11.2812H15.0625ZM15.0625 7.53125V8.46875H14.125V7.53125H15.0625Z" fill="#1D1D1B"/>
</svg>
