<svg width="14" height="16" viewBox="0 0 14 16" fill="none" xmlns="http://www.w3.org/2000/svg">
<path d="M13.7163 7.219C13.7163 6.44361 13.0855 5.81275 12.3101 5.81275H11.9722L12.5457 3.67273C12.5715 3.57605 12.5658 3.47339 12.5292 3.38013L11.6067 1.03016C11.5523 0.891606 11.4354 0.787114 11.2916 0.748662C11.148 0.710087 10.9944 0.74207 10.8781 0.834843L8.90418 2.40882C8.82581 2.47132 8.76954 2.55726 8.74366 2.65406L7.89722 5.81275H6.83827L3.86341 0.660038C3.68202 0.346074 3.3838 0.125493 3.02357 0.0388227C2.67225 -0.0455279 2.30433 0.00854929 1.98756 0.191533C1.45399 0.499516 1.19545 1.09851 1.30665 1.65503L0.546888 2.09363C0.439223 2.15577 0.360731 2.25806 0.328505 2.37818C0.296278 2.4983 0.313124 2.62622 0.37538 2.73389L1.53285 4.7389C1.61976 4.88929 1.77723 4.97339 1.93922 4.97339C2.01881 4.97339 2.09938 4.95313 2.17323 4.9104C2.39735 4.78101 2.47426 4.49439 2.34474 4.27015L1.42152 2.67115L1.71583 2.50122L2.00685 3.0055H2.00697V3.00562L3.6277 5.81275H3.43275C2.65736 5.81275 2.0265 6.44361 2.0265 7.219C2.0265 7.97339 2.62379 8.5907 3.37025 8.62354V13.7172C3.37025 14.976 4.43568 16 5.74525 16H9.99756C11.3071 16 12.3727 14.976 12.3727 13.7172V8.62354C13.1191 8.5907 13.7163 7.97339 13.7163 7.219ZM10.9659 1.96375L11.6001 3.57911L11.5592 3.73194L9.56824 3.19849L9.60914 3.04566L10.9659 1.96375ZM9.32557 4.10401L11.3165 4.63745L11.0016 5.81275H8.86768L9.32557 4.10401ZM2.45631 1.00342C2.5641 0.941166 2.68776 0.922245 2.80446 0.950322C2.91236 0.976323 3.00001 1.03968 3.05153 1.12879L3.36866 1.6781L2.58448 2.13086L2.26735 1.58155C2.15724 1.39087 2.24379 1.1261 2.45631 1.00342ZM3.05323 2.94275L3.83741 2.48999L5.75575 5.81275H4.71009L3.05323 2.94275ZM11.4352 13.7172C11.4352 14.459 10.7903 15.0625 9.99756 15.0625H5.74525C4.95252 15.0625 4.30775 14.459 4.30775 13.7172V8.62513H11.4352V13.7172ZM12.3101 7.68763H3.43275C3.17433 7.68763 2.964 7.47742 2.964 7.219C2.964 6.96045 3.17433 6.75025 3.43275 6.75025H8.25343C8.25465 6.75025 8.25587 6.75037 8.25721 6.75037C8.25819 6.75037 8.25916 6.75025 8.26014 6.75025H12.3101C12.5686 6.75025 12.7788 6.96045 12.7788 7.219C12.7788 7.47742 12.5686 7.68763 12.3101 7.68763Z" fill="#1D1D1B"/>
</svg>
